<?xml version="1.0" encoding="UTF-8" standalone="no"?>
<!DOCTYPE svg PUBLIC "-//W3C//DTD SVG 1.1//EN" "http://www.w3.org/Graphics/SVG/1.1/DTD/svg11.dtd">
<svg width="100%" height="100%" viewBox="0 0 3744 1732" version="1.1" xmlns="http://www.w3.org/2000/svg" xmlns:xlink="http://www.w3.org/1999/xlink" xml:space="preserve" xmlns:serif="http://www.serif.com/" style="fill-rule:evenodd;clip-rule:evenodd;stroke-miterlimit:10;">
    <g transform="matrix(4.16667,0,0,4.16667,2103.85,989.951)">
        <path d="M0,-61.69C6.026,-67.159 12.176,-71.292 18.417,-74.057C24.658,-76.854 30.715,-78.251 36.559,-78.251C44.39,-78.251 50.417,-76.033 54.608,-71.566C58.83,-67.129 60.94,-61.082 60.94,-53.423L60.94,7.658L76.176,7.658L76.176,16.561L34.508,16.561L34.508,7.658L50.723,7.658L50.723,-52.178C50.723,-63.392 45.522,-68.983 35.12,-68.983C29.339,-68.983 23.679,-67.585 18.172,-64.759C12.696,-61.962 6.945,-57.678 0.979,-51.996L0.979,7.658L16.397,7.658L16.397,16.561L-25.453,16.561L-25.453,7.658L-9.33,7.658L-9.33,-52.36C-9.33,-63.452 -14.409,-68.983 -24.567,-68.983C-29.95,-68.983 -35.518,-67.494 -41.3,-64.485C-47.052,-61.507 -52.988,-57.344 -59.075,-51.996L-59.075,7.658L-43.656,7.658L-43.656,16.561L-86.058,16.561L-86.058,7.658L-69.568,7.658L-69.568,-68.01L-86.058,-68.01L-86.058,-77.005L-59.075,-77.005L-59.075,-62.571C-47.541,-73.024 -35.855,-78.251 -24.046,-78.251C-11.412,-78.251 -3.427,-72.72 0,-61.69" style="fill:white;"/>
    </g>
    <g transform="matrix(4.16667,0,0,4.16667,2662.8,697.71)">
        <path d="M0,80.105C7.099,80.105 13.4,78.343 18.906,74.818C24.413,71.292 28.726,66.491 31.848,60.444C34.998,54.396 36.559,47.589 36.559,40.053C36.559,32.638 34.998,25.892 31.848,19.784C28.726,13.705 24.383,8.874 18.815,5.288C13.277,1.702 6.944,-0.091 -0.183,-0.091C-6.884,-0.091 -13.002,1.702 -18.6,5.288C-24.198,8.874 -28.513,13.705 -31.54,19.784C-34.601,25.892 -36.13,32.638 -36.13,40.053C-36.13,47.467 -34.57,54.244 -31.45,60.353C-28.36,66.46 -24.046,71.292 -18.508,74.818C-12.971,78.343 -6.823,80.105 0,80.105M47.052,40.053C47.052,49.138 45.001,57.435 40.872,64.971C36.742,72.508 31.113,78.494 23.985,82.87C16.826,87.277 8.841,89.464 0,89.464C-8.903,89.464 -16.917,87.338 -24.016,83.053C-31.144,78.768 -36.712,72.873 -40.749,65.336C-44.757,57.8 -46.777,49.351 -46.777,40.053C-46.777,30.906 -44.726,22.548 -40.658,14.951C-36.559,7.354 -30.93,1.398 -23.74,-2.917C-16.581,-7.201 -8.658,-9.359 0,-9.359C8.841,-9.359 16.826,-7.141 23.985,-2.735C31.113,1.702 36.742,7.689 40.872,15.286C45.001,22.883 47.052,31.149 47.052,40.053" style="fill:white;"/>
    </g>
    <g transform="matrix(4.16667,0,0,4.16667,3103.22,697.71)">
        <path d="M0,80.105C7.099,80.105 13.401,78.343 18.906,74.818C24.414,71.292 28.727,66.491 31.848,60.444C34.998,54.396 36.559,47.589 36.559,40.053C36.559,32.638 34.998,25.892 31.848,19.784C28.727,13.705 24.383,8.874 18.815,5.288C13.278,1.702 6.944,-0.091 -0.183,-0.091C-6.883,-0.091 -13.002,1.702 -18.6,5.288C-24.198,8.874 -28.512,13.705 -31.54,19.784C-34.6,25.892 -36.13,32.638 -36.13,40.053C-36.13,47.467 -34.57,54.244 -31.449,60.353C-28.36,66.46 -24.046,71.292 -18.508,74.818C-12.97,78.343 -6.823,80.105 0,80.105M47.052,40.053C47.052,49.138 45.002,57.435 40.872,64.971C36.742,72.508 31.114,78.494 23.986,82.87C16.826,87.277 8.841,89.464 0,89.464C-8.902,89.464 -16.917,87.338 -24.015,83.053C-31.143,78.768 -36.711,72.873 -40.749,65.336C-44.757,57.8 -46.776,49.351 -46.776,40.053C-46.776,30.906 -44.726,22.548 -40.658,14.951C-36.559,7.354 -30.929,1.398 -23.74,-2.917C-16.581,-7.201 -8.657,-9.359 0,-9.359C8.841,-9.359 16.826,-7.141 23.986,-2.735C31.114,1.702 36.742,7.689 40.872,15.286C45.002,22.883 47.052,31.149 47.052,40.053" style="fill:white;"/>
    </g>
    <g transform="matrix(4.16667,0,0,4.16667,3398.44,1035.57)">
        <path d="M0,-78.959L29.806,-3.291L60.246,-78.959L44.787,-78.959L44.787,-87.954L82.775,-87.954L82.775,-78.959L69.157,-78.959L31.74,8.995L27.904,8.995L-9.908,-78.959L-24.65,-78.959L-24.65,-87.954L15.023,-87.954L15.023,-78.959L0,-78.959Z" style="fill:white;"/>
    </g>
    <g transform="matrix(4.16667,0,0,4.16667,660.741,1402.13)">
        <path d="M0,-278.463C-4.299,-270.601 -7.828,-255.309 -7.173,-237.436C-24.172,-243.211 -39.994,-244.202 -48.771,-242.469C-49.675,-233.723 -47.13,-218.665 -39.927,-202.772C-57.402,-201.56 -72.001,-196.588 -79.329,-191.757C-76.813,-183.165 -68.509,-169.872 -55.427,-157.706C-71.51,-149.778 -83.388,-139.309 -88.367,-131.887C-82.834,-125.071 -70.422,-116.233 -54.128,-110.083C-65.674,-96.836 -72.502,-82.947 -74.269,-74.328C-66.482,-70.073 -51.41,-66.575 -33.763,-67.149C-39.487,-50.316 -40.509,-34.669 -38.824,-25.953C-30.119,-25.017 -15.148,-27.481 0.693,-34.549C1.825,-17.164 6.684,-2.625 11.45,4.701C20.133,2.217 33.637,-6.126 45.972,-19.33C53.906,-2.969 64.506,9.123 72.001,14.167C78.848,8.625 87.737,-3.838 93.914,-20.201C106.904,-8.552 120.497,-1.595 129.109,0.172C133.402,-7.675 137.216,-23.063 136.824,-41.011C153.672,-35.008 169.318,-33.775 178.11,-35.509C179.012,-44.24 176.686,-59.487 169.696,-75.548C187.118,-76.494 201.648,-81.186 208.99,-86.025C206.478,-94.603 198.309,-108.164 185.361,-120.569C201.498,-128.228 213.422,-138.402 218.409,-145.836C212.852,-152.683 200.338,-161.879 183.926,-168.304C195.589,-181.308 202.553,-194.92 204.318,-203.542C196.523,-207.801 181.296,-211.588 163.509,-211.251C169.431,-227.897 170.684,-243.328 168.998,-252.043C160.319,-252.974 145.184,-250.733 129.192,-243.892C128.315,-261.188 123.74,-275.626 118.973,-282.954C110.292,-280.47 96.487,-272.241 83.896,-259.137C76.24,-275.494 65.973,-287.59 58.483,-292.63C51.622,-287.077 42.399,-274.557 35.948,-258.13C22.645,-269.788 8.663,-276.684 0,-278.463Z" style="fill:white;stroke:rgb(35,31,32);stroke-width:2px;"/>
    </g>
    <g transform="matrix(4.16667,0,0,4.16667,660.741,1402.13)">
        <path d="M0,-278.463C-4.299,-270.601 -7.828,-255.309 -7.173,-237.436C-24.172,-243.211 -39.994,-244.202 -48.771,-242.469C-49.675,-233.723 -47.13,-218.665 -39.927,-202.772C-57.402,-201.56 -72.001,-196.588 -79.329,-191.757C-76.813,-183.165 -68.509,-169.872 -55.427,-157.706C-71.51,-149.778 -83.388,-139.309 -88.367,-131.887C-82.834,-125.071 -70.422,-116.233 -54.128,-110.083C-65.674,-96.836 -72.502,-82.947 -74.269,-74.328C-66.482,-70.073 -51.41,-66.575 -33.763,-67.149C-39.487,-50.316 -40.509,-34.669 -38.824,-25.953C-30.119,-25.017 -15.148,-27.481 0.693,-34.549C1.825,-17.164 6.684,-2.625 11.45,4.701C20.133,2.217 33.637,-6.126 45.972,-19.33C53.906,-2.969 64.506,9.123 72.001,14.167C78.848,8.625 87.737,-3.838 93.914,-20.201C106.904,-8.552 120.497,-1.595 129.109,0.172C133.402,-7.675 137.216,-23.063 136.824,-41.011C153.672,-35.008 169.318,-33.775 178.11,-35.509C179.012,-44.24 176.686,-59.487 169.696,-75.548C187.118,-76.494 201.648,-81.186 208.99,-86.025C206.478,-94.603 198.309,-108.164 185.361,-120.569C201.498,-128.228 213.422,-138.402 218.409,-145.836C212.852,-152.683 200.338,-161.879 183.926,-168.304C195.589,-181.308 202.553,-194.92 204.318,-203.542C196.523,-207.801 181.296,-211.588 163.509,-211.251C169.431,-227.897 170.684,-243.328 168.998,-252.043C160.319,-252.974 145.184,-250.733 129.192,-243.892C128.315,-261.188 123.74,-275.626 118.973,-282.954C110.292,-280.47 96.487,-272.241 83.896,-259.137C76.24,-275.494 65.973,-287.59 58.483,-292.63C51.622,-287.077 42.399,-274.557 35.948,-258.13C22.645,-269.788 8.663,-276.684 0,-278.463Z" style="fill:white;stroke:rgb(35,31,32);stroke-width:1px;"/>
    </g>
    <g transform="matrix(4.16667,0,0,4.16667,660.741,1402.13)">
        <path d="M0,-278.463C-4.299,-270.601 -7.828,-255.309 -7.173,-237.436C-24.172,-243.211 -39.994,-244.202 -48.771,-242.469C-49.675,-233.723 -47.13,-218.665 -39.927,-202.772C-57.402,-201.56 -72.001,-196.588 -79.329,-191.757C-76.813,-183.165 -68.509,-169.872 -55.427,-157.706C-71.51,-149.778 -83.388,-139.309 -88.367,-131.887C-82.834,-125.071 -70.422,-116.233 -54.128,-110.083C-65.674,-96.836 -72.502,-82.947 -74.269,-74.328C-66.482,-70.073 -51.41,-66.575 -33.763,-67.149C-39.487,-50.316 -40.509,-34.669 -38.824,-25.953C-30.119,-25.017 -15.148,-27.481 0.693,-34.549C1.825,-17.164 6.684,-2.625 11.45,4.701C20.133,2.217 33.637,-6.126 45.972,-19.33C53.906,-2.969 64.506,9.123 72.001,14.167C78.848,8.625 87.737,-3.838 93.914,-20.201C106.904,-8.552 120.497,-1.595 129.109,0.172C133.402,-7.675 137.216,-23.063 136.824,-41.011C153.672,-35.008 169.318,-33.775 178.11,-35.509C179.012,-44.24 176.686,-59.487 169.696,-75.548C187.118,-76.494 201.648,-81.186 208.99,-86.025C206.478,-94.603 198.309,-108.164 185.361,-120.569C201.498,-128.228 213.422,-138.402 218.409,-145.836C212.852,-152.683 200.338,-161.879 183.926,-168.304C195.589,-181.308 202.553,-194.92 204.318,-203.542C196.523,-207.801 181.296,-211.588 163.509,-211.251C169.431,-227.897 170.684,-243.328 168.998,-252.043C160.319,-252.974 145.184,-250.733 129.192,-243.892C128.315,-261.188 123.74,-275.626 118.973,-282.954C110.292,-280.47 96.487,-272.241 83.896,-259.137C76.24,-275.494 65.973,-287.59 58.483,-292.63C51.622,-287.077 42.399,-274.557 35.948,-258.13C22.645,-269.788 8.663,-276.684 0,-278.463Z" style="fill:white;stroke:rgb(35,31,32);stroke-width:1px;stroke-miterlimit:22.926;"/>
    </g>
    <g transform="matrix(4.16667,0,0,4.16667,809.25,1311.02)">
        <path d="M0,-234.763C-3.584,-228.688 -7.622,-213.967 -7.407,-196.218C-21.214,-207.998 -35.856,-214.075 -42.935,-215.346C-44.036,-208.185 -42.193,-192.372 -34.928,-175.46C-52.41,-181.219 -68.322,-181.674 -75.36,-179.952C-73.479,-173.021 -66.168,-159.003 -53.268,-146.296C-71.317,-144.852 -85.907,-139.279 -91.682,-135.051C-87.289,-129.357 -75.141,-119.169 -58.32,-112.356C-74.167,-104.357 -86.034,-94.198 -89.77,-88.216C-83.656,-84.608 -68.234,-79.526 -50.401,-79.325C-62.104,-65.561 -68.14,-52.336 -69.405,-45.282C-62.226,-44.179 -46.357,-44.692 -29.398,-52.002C-35.099,-34.436 -36.554,-19.789 -34.949,-12.682C-28.028,-14.428 -12.945,-20.547 -0.35,-33.466C1.111,-15.482 6.268,-2.904 10.485,2.856C16.179,-1.538 26.766,-11.734 33.579,-28.555C41.578,-12.709 51.952,-1.512 57.935,2.225C61.542,-3.889 66.409,-18.641 66.61,-36.474C80.374,-24.773 94.94,-18.733 101.994,-17.466C103.095,-24.627 101.251,-40.439 93.988,-57.352C111.472,-51.592 127.017,-51.96 134.053,-53.681C132.173,-60.61 125.23,-73.808 112.33,-86.514C130.379,-87.959 143.943,-94.474 149.719,-98.702C145.341,-104.376 134.286,-113.571 117.555,-120.384C133.283,-128.79 144.523,-140.416 148.284,-146.437C142.208,-150.021 127.092,-153.556 109.342,-153.342C121.122,-167.148 126.596,-182.305 127.867,-189.384C120.688,-190.488 105.419,-188.119 88.459,-180.809C94.159,-198.376 95.151,-214.977 93.546,-222.085C86.624,-220.339 72.005,-212.265 59.41,-199.343C57.949,-217.328 52.392,-231.859 48.175,-237.619C42.501,-233.242 32.364,-221.162 25.551,-204.431C17.145,-220.159 6.021,-231.003 0,-234.763Z" style="fill:white;stroke:rgb(35,31,32);stroke-width:1px;"/>
    </g>
    <g transform="matrix(4.16667,0,0,4.16667,809.25,1311.02)">
        <path d="M0,-234.763C-3.584,-228.688 -7.622,-213.967 -7.407,-196.218C-21.214,-207.998 -35.856,-214.075 -42.935,-215.346C-44.036,-208.185 -42.193,-192.372 -34.928,-175.46C-52.41,-181.219 -68.322,-181.674 -75.36,-179.952C-73.479,-173.021 -66.168,-159.003 -53.268,-146.296C-71.317,-144.852 -85.907,-139.279 -91.682,-135.051C-87.289,-129.357 -75.141,-119.169 -58.32,-112.356C-74.167,-104.357 -86.034,-94.198 -89.77,-88.216C-83.656,-84.608 -68.234,-79.526 -50.401,-79.325C-62.104,-65.561 -68.14,-52.336 -69.405,-45.282C-62.226,-44.179 -46.357,-44.692 -29.398,-52.002C-35.099,-34.436 -36.554,-19.789 -34.949,-12.682C-28.028,-14.428 -12.945,-20.547 -0.35,-33.466C1.111,-15.482 6.268,-2.904 10.485,2.856C16.179,-1.538 26.766,-11.734 33.579,-28.555C41.578,-12.709 51.952,-1.512 57.935,2.225C61.542,-3.889 66.409,-18.641 66.61,-36.474C80.374,-24.773 94.94,-18.733 101.994,-17.466C103.095,-24.627 101.251,-40.439 93.988,-57.352C111.472,-51.592 127.017,-51.96 134.053,-53.681C132.173,-60.61 125.23,-73.808 112.33,-86.514C130.379,-87.959 143.943,-94.474 149.719,-98.702C145.341,-104.376 134.286,-113.571 117.555,-120.384C133.283,-128.79 144.523,-140.416 148.284,-146.437C142.208,-150.021 127.092,-153.556 109.342,-153.342C121.122,-167.148 126.596,-182.305 127.867,-189.384C120.688,-190.488 105.419,-188.119 88.459,-180.809C94.159,-198.376 95.151,-214.977 93.546,-222.085C86.624,-220.339 72.005,-212.265 59.41,-199.343C57.949,-217.328 52.392,-231.859 48.175,-237.619C42.501,-233.242 32.364,-221.162 25.551,-204.431C17.145,-220.159 6.021,-231.003 0,-234.763" style="fill:white;"/>
    </g>
    <g transform="matrix(4.16667,0,0,4.16667,-67.9828,-1261.33)">
        <clipPath id="_clip1">
            <path d="M236.086,412.934C227.68,397.205 216.557,386.362 210.535,382.602C206.952,388.677 202.914,403.398 203.128,421.147C189.322,409.367 174.68,403.29 167.601,402.019C166.5,409.18 168.343,424.992 175.608,441.905C158.126,436.145 142.214,435.691 135.176,437.413C137.057,444.343 144.367,458.362 157.268,471.068C139.219,472.512 124.629,478.086 118.853,482.313C123.247,488.008 135.395,498.196 152.216,505.01C136.369,513.008 124.502,523.167 120.766,529.148C126.88,532.758 142.302,537.838 160.135,538.04C148.432,551.804 142.396,565.029 141.131,572.082C148.309,573.186 164.179,572.673 181.138,565.363C175.437,582.929 173.982,597.576 175.587,604.683C182.509,602.937 197.591,596.819 210.186,583.898C211.647,601.883 216.803,614.46 221.021,620.22C226.715,615.827 237.302,605.631 244.115,588.81C252.114,604.656 262.488,615.853 268.47,619.59C272.078,613.476 276.945,598.724 277.146,580.891C290.91,592.592 305.477,598.632 312.53,599.899C313.63,592.738 311.787,576.926 304.523,560.013C322.008,565.772 337.552,565.405 344.59,563.684C342.709,556.754 335.766,543.557 322.865,530.85C340.915,529.406 354.48,522.891 360.254,518.663C355.876,512.989 344.822,503.794 328.091,496.981C343.819,488.575 355.059,476.949 358.819,470.927C352.745,467.344 337.628,463.809 319.878,464.023C331.658,450.217 337.132,435.06 338.403,427.98C331.224,426.877 315.955,429.246 298.995,436.556C304.695,418.989 305.686,402.387 304.081,395.28C297.16,397.026 282.541,405.1 269.945,418.021C268.485,400.036 262.928,385.506 258.711,379.746C253.037,384.122 242.9,396.202 236.086,412.934Z" clip-rule="nonzero"/>
        </clipPath>
        <g clip-path="url(#_clip1)">
            <g transform="matrix(1,0,0,1,224.135,307.745)">
                <path d="M0,405.588C111.695,405.588 202.794,314.49 202.794,202.794C202.794,91.099 111.695,0 0,0C-111.695,0 -202.794,91.099 -202.794,202.794C-202.794,314.49 -111.695,405.588 0,405.588" style="fill:white;"/>
            </g>
            <g transform="matrix(1,0,0,1,224.135,307.745)">
                <path d="M0,405.588C111.695,405.588 202.794,314.49 202.794,202.794C202.794,91.099 111.695,0 0,0C-111.695,0 -202.794,91.099 -202.794,202.794C-202.794,314.49 -111.695,405.588 0,405.588Z" style="fill:none;fill-rule:nonzero;stroke:rgb(35,31,32);stroke-width:1px;"/>
            </g>
        </g>
    </g>
    <g transform="matrix(4.16667,0,0,4.16667,809.25,1311.02)">
        <path d="M0,-234.763C-3.584,-228.688 -7.622,-213.967 -7.407,-196.218C-21.214,-207.998 -35.856,-214.075 -42.935,-215.346C-44.036,-208.185 -42.193,-192.372 -34.928,-175.46C-52.41,-181.219 -68.322,-181.674 -75.36,-179.952C-73.479,-173.021 -66.168,-159.003 -53.268,-146.296C-71.317,-144.852 -85.907,-139.279 -91.682,-135.051C-87.289,-129.357 -75.141,-119.169 -58.32,-112.356C-74.167,-104.357 -86.034,-94.198 -89.77,-88.216C-83.656,-84.608 -68.234,-79.526 -50.401,-79.325C-62.104,-65.561 -68.14,-52.336 -69.405,-45.282C-62.226,-44.179 -46.357,-44.692 -29.398,-52.002C-35.099,-34.436 -36.554,-19.789 -34.949,-12.682C-28.028,-14.428 -12.945,-20.547 -0.35,-33.466C1.111,-15.482 6.268,-2.904 10.485,2.856C16.179,-1.538 26.766,-11.734 33.579,-28.555C41.578,-12.709 51.952,-1.512 57.935,2.225C61.542,-3.889 66.409,-18.641 66.61,-36.474C80.374,-24.773 94.94,-18.733 101.994,-17.466C103.095,-24.627 101.251,-40.439 93.988,-57.352C111.472,-51.592 127.017,-51.96 134.053,-53.681C132.173,-60.61 125.23,-73.808 112.33,-86.514C130.379,-87.959 143.943,-94.474 149.719,-98.702C145.341,-104.376 134.286,-113.571 117.555,-120.384C133.283,-128.79 144.523,-140.416 148.284,-146.437C142.208,-150.021 127.092,-153.556 109.342,-153.342C121.122,-167.148 126.596,-182.305 127.867,-189.384C120.688,-190.488 105.419,-188.119 88.459,-180.809C94.159,-198.376 95.151,-214.977 93.546,-222.085C86.624,-220.339 72.005,-212.265 59.41,-199.343C57.949,-217.328 52.392,-231.859 48.175,-237.619C42.501,-233.242 32.364,-221.162 25.551,-204.431C17.145,-220.159 6.021,-231.003 0,-234.763Z" style="fill:none;stroke:rgb(35,31,32);stroke-width:1px;"/>
        <path d="M0,-234.763C-3.584,-228.688 -7.622,-213.967 -7.407,-196.218C-21.214,-207.998 -35.856,-214.075 -42.935,-215.346C-44.036,-208.185 -42.193,-192.372 -34.928,-175.46C-52.41,-181.219 -68.322,-181.674 -75.36,-179.952C-73.479,-173.021 -66.168,-159.003 -53.268,-146.296C-71.317,-144.852 -85.907,-139.279 -91.682,-135.051C-87.289,-129.357 -75.141,-119.169 -58.32,-112.356C-74.167,-104.357 -86.034,-94.198 -89.77,-88.216C-83.656,-84.608 -68.234,-79.526 -50.401,-79.325C-62.104,-65.561 -68.14,-52.336 -69.405,-45.282C-62.226,-44.179 -46.357,-44.692 -29.398,-52.002C-35.099,-34.436 -36.554,-19.789 -34.949,-12.682C-28.028,-14.428 -12.945,-20.547 -0.35,-33.466C1.111,-15.482 6.268,-2.904 10.485,2.856C16.179,-1.538 26.766,-11.734 33.579,-28.555C41.578,-12.709 51.952,-1.512 57.935,2.225C61.542,-3.889 66.409,-18.641 66.61,-36.474C80.374,-24.773 94.94,-18.733 101.994,-17.466C103.095,-24.627 101.251,-40.439 93.988,-57.352C111.472,-51.592 127.017,-51.96 134.053,-53.681C132.173,-60.61 125.23,-73.808 112.33,-86.514C130.379,-87.959 143.943,-94.474 149.719,-98.702C145.341,-104.376 134.286,-113.571 117.555,-120.384C133.283,-128.79 144.523,-140.416 148.284,-146.437C142.208,-150.021 127.092,-153.556 109.342,-153.342C121.122,-167.148 126.596,-182.305 127.867,-189.384C120.688,-190.488 105.419,-188.119 88.459,-180.809C94.159,-198.376 95.151,-214.977 93.546,-222.085C86.624,-220.339 72.005,-212.265 59.41,-199.343C57.949,-217.328 52.392,-231.859 48.175,-237.619C42.501,-233.242 32.364,-221.162 25.551,-204.431C17.145,-220.159 6.021,-231.003 0,-234.763Z" style="fill:white;"/>
    </g>
    <g transform="matrix(4.16667,0,0,4.16667,809.25,1311.02)">
        <path d="M0,-234.763C-3.584,-228.688 -7.622,-213.967 -7.407,-196.218C-21.214,-207.998 -35.856,-214.075 -42.935,-215.346C-44.036,-208.185 -42.193,-192.372 -34.928,-175.46C-52.41,-181.219 -68.322,-181.674 -75.36,-179.952C-73.479,-173.021 -66.168,-159.003 -53.268,-146.296C-71.317,-144.852 -85.907,-139.279 -91.682,-135.051C-87.289,-129.357 -75.141,-119.169 -58.32,-112.356C-74.167,-104.357 -86.034,-94.198 -89.77,-88.216C-83.656,-84.608 -68.234,-79.526 -50.401,-79.325C-62.104,-65.561 -68.14,-52.336 -69.405,-45.282C-62.226,-44.179 -46.357,-44.692 -29.398,-52.002C-35.099,-34.436 -36.554,-19.789 -34.949,-12.682C-28.028,-14.428 -12.945,-20.547 -0.35,-33.466C1.111,-15.482 6.268,-2.904 10.485,2.856C16.179,-1.538 26.766,-11.734 33.579,-28.555C41.578,-12.709 51.952,-1.512 57.935,2.225C61.542,-3.889 66.409,-18.641 66.61,-36.474C80.374,-24.773 94.94,-18.733 101.994,-17.466C103.095,-24.627 101.251,-40.439 93.988,-57.352C111.472,-51.592 127.017,-51.96 134.053,-53.681C132.173,-60.61 125.23,-73.808 112.33,-86.514C130.379,-87.959 143.943,-94.474 149.719,-98.702C145.341,-104.376 134.286,-113.571 117.555,-120.384C133.283,-128.79 144.523,-140.416 148.284,-146.437C142.208,-150.021 127.092,-153.556 109.342,-153.342C121.122,-167.148 126.596,-182.305 127.867,-189.384C120.688,-190.488 105.419,-188.119 88.459,-180.809C94.159,-198.376 95.151,-214.977 93.546,-222.085C86.624,-220.339 72.005,-212.265 59.41,-199.343C57.949,-217.328 52.392,-231.859 48.175,-237.619C42.501,-233.242 32.364,-221.162 25.551,-204.431C17.145,-220.159 6.021,-231.003 0,-234.763Z" style="fill:none;fill-rule:nonzero;stroke:rgb(35,31,32);stroke-width:1px;stroke-miterlimit:22.926;"/>
    </g>
    <g transform="matrix(4.16667,0,0,4.16667,776.346,1159.55)">
        <path d="M0,-160.281C-0.706,-154.912 1.158,-134.423 7.769,-118.447C-5.286,-129.248 -21.776,-138.179 -27.031,-139.107C-25.677,-133.597 -17.255,-117.625 -4.404,-104.534C-21.42,-109.404 -40.001,-111.249 -45.371,-109.944C-42.122,-105.71 -26.306,-92.001 -10.702,-85.402C-27.925,-83.898 -45.987,-79.107 -50.423,-76.003C-45.863,-73.24 -26.47,-69.56 -9.628,-68.718C-24.182,-60.2 -39.733,-47.528 -42.504,-42.973C-36.762,-42.215 -17.717,-43.379 -0.503,-51.199C-13.144,-37.141 -20.492,-21.355 -21.501,-15.649C-15.991,-17.002 -0.634,-24.389 12.457,-37.241C7.585,-20.225 6.241,-2.484 7.547,2.886C11.928,-0.475 25.387,-15.479 32.026,-31.924C33.475,-14.491 38.345,3.321 41.476,7.797C44.309,3.123 48.341,-15.541 48.937,-32.971C57.535,-17.272 69.747,-3.017 74.507,-0.121C75.214,-5.49 73.716,-25.695 67.105,-41.669C80.16,-30.868 96.63,-21.928 101.885,-21C100.613,-26.179 90.656,-43.019 79.344,-55.525C95.658,-51.258 115.046,-48.9 120.227,-50.162C116.699,-54.759 102.024,-66.184 84.325,-72.823C103.203,-73.828 120.705,-80.71 125.452,-84.031C120.891,-86.794 101.471,-90.918 84.629,-91.76C99.183,-100.279 114.467,-112.436 117.239,-116.99C111.494,-117.747 93.06,-117.706 75.846,-109.886C88.488,-123.944 95.38,-138.765 96.389,-144.471C91.21,-143.2 74.441,-133.37 61.933,-122.059C66.2,-138.373 69.005,-158.256 67.744,-163.437C63.147,-159.91 49.442,-146.057 42.802,-128.358C41.798,-147.237 36.769,-163.331 33.448,-168.078C30.485,-163.188 25.964,-145.767 25.896,-127.23C17.284,-143.645 4.885,-157.309 0,-160.281" style="fill:white;"/>
    </g>
    <g transform="matrix(4.16667,0,0,4.16667,-67.9828,-1261.33)">
        <clipPath id="_clip2">
            <path d="M228.535,453.783C219.923,437.367 207.524,423.704 202.639,420.732C201.932,426.1 203.797,446.589 210.408,462.565C197.353,451.765 180.863,442.833 175.608,441.905C176.962,447.415 185.383,463.387 198.235,476.478C181.219,471.608 162.637,469.764 157.268,471.068C160.516,475.302 176.333,489.011 191.937,495.611C174.714,497.115 156.652,501.905 152.216,505.01C156.776,507.772 176.169,511.452 193.011,512.294C178.457,520.812 162.907,533.485 160.135,538.04C165.878,538.797 184.922,537.633 202.136,529.814C189.494,543.872 182.147,559.657 181.138,565.363C186.649,564.01 202.004,556.623 215.096,543.771C210.224,560.787 208.88,578.529 210.186,583.898C214.567,580.538 228.026,565.533 234.665,549.089C236.113,566.522 240.983,584.333 244.115,588.81C246.948,584.135 250.98,565.472 251.576,548.041C260.174,563.74 272.386,577.995 277.146,580.891C277.853,575.523 276.355,555.318 269.745,539.344C282.799,550.145 299.268,559.084 304.523,560.013C303.252,554.834 293.294,537.994 281.983,525.487C298.296,529.755 317.685,532.112 322.865,530.85C319.338,526.254 304.663,514.829 286.964,508.189C305.842,507.184 323.343,500.302 328.091,496.981C323.53,494.218 304.11,490.095 287.269,489.252C301.822,480.734 317.106,468.577 319.878,464.023C314.133,463.265 295.699,463.306 278.485,471.125C291.127,457.068 298.019,442.247 299.028,436.541C293.849,437.813 277.08,447.642 264.572,458.953C268.839,442.639 271.644,422.757 270.383,417.576C265.786,421.103 252.08,434.955 245.44,452.655C244.437,433.776 239.408,417.681 236.086,412.934C233.124,417.825 228.603,435.245 228.535,453.783Z" clip-rule="nonzero"/>
        </clipPath>
        <g clip-path="url(#_clip2)">
            <g opacity="0.76">
                <g transform="matrix(1,0,0,1,-33,-31.256)">
                    <clipPath id="_clip3">
                        <rect x="184.716" y="443.69" width="176.874" height="176.876" clip-rule="nonzero"/>
                    </clipPath>
                    <g clip-path="url(#_clip3)">
                        <rect x="185.216" y="444.19" width="175.874" height="175.876" style="fill:white;stroke:rgb(35,31,32);stroke-width:1px;"/>
                    </g>
                </g>
            </g>
        </g>
    </g>
    <g transform="matrix(4.16667,0,0,4.16667,776.346,1159.55)">
        <path d="M0,-160.281C-0.706,-154.912 1.158,-134.423 7.769,-118.447C-5.286,-129.248 -21.776,-138.179 -27.031,-139.107C-25.677,-133.597 -17.255,-117.625 -4.404,-104.534C-21.42,-109.404 -40.001,-111.249 -45.371,-109.944C-42.122,-105.71 -26.306,-92.001 -10.702,-85.402C-27.925,-83.898 -45.987,-79.107 -50.423,-76.003C-45.863,-73.24 -26.47,-69.56 -9.628,-68.718C-24.182,-60.2 -39.733,-47.528 -42.504,-42.973C-36.762,-42.215 -17.717,-43.379 -0.503,-51.199C-13.144,-37.141 -20.492,-21.355 -21.501,-15.649C-15.991,-17.002 -0.634,-24.389 12.457,-37.241C7.585,-20.225 6.241,-2.484 7.547,2.886C11.928,-0.475 25.387,-15.479 32.026,-31.924C33.475,-14.491 38.345,3.321 41.476,7.797C44.309,3.123 48.341,-15.541 48.937,-32.971C57.535,-17.272 69.747,-3.017 74.507,-0.121C75.214,-5.49 73.716,-25.695 67.105,-41.669C80.16,-30.868 96.63,-21.928 101.885,-21C100.613,-26.179 90.656,-43.019 79.344,-55.525C95.658,-51.258 115.046,-48.9 120.227,-50.162C116.699,-54.759 102.024,-66.184 84.325,-72.823C103.203,-73.828 120.705,-80.71 125.452,-84.031C120.891,-86.794 101.471,-90.918 84.629,-91.76C99.183,-100.279 114.467,-112.436 117.239,-116.99C111.494,-117.747 93.06,-117.706 75.846,-109.886C88.488,-123.944 95.38,-138.765 96.389,-144.471C91.21,-143.2 74.441,-133.37 61.933,-122.059C66.2,-138.373 69.005,-158.256 67.744,-163.437C63.147,-159.91 49.442,-146.057 42.802,-128.358C41.798,-147.237 36.769,-163.331 33.448,-168.078C30.485,-163.188 25.964,-145.767 25.896,-127.23C17.284,-143.645 4.885,-157.309 0,-160.281Z" style="fill:none;fill-rule:nonzero;stroke:rgb(35,31,32);stroke-width:1px;"/>
    </g>
    <g transform="matrix(4.16667,0,0,4.16667,-67.9828,-1261.33)">
        <g opacity="0.76">
            <g transform="matrix(1,0,0,1,202.639,581.012)">
                <path d="M0,-160.281C-0.706,-154.912 1.158,-134.423 7.769,-118.447C-5.286,-129.248 -21.776,-138.179 -27.031,-139.107C-25.677,-133.597 -17.255,-117.625 -4.404,-104.534C-21.42,-109.404 -40.001,-111.249 -45.371,-109.944C-42.122,-105.71 -26.306,-92.001 -10.702,-85.402C-27.925,-83.898 -45.987,-79.107 -50.423,-76.003C-45.863,-73.24 -26.47,-69.56 -9.628,-68.718C-24.182,-60.2 -39.733,-47.528 -42.504,-42.973C-36.762,-42.215 -17.717,-43.379 -0.503,-51.199C-13.144,-37.141 -20.492,-21.355 -21.501,-15.649C-15.991,-17.002 -0.634,-24.389 12.457,-37.241C7.585,-20.225 6.241,-2.484 7.547,2.886C11.928,-0.475 25.387,-15.479 32.026,-31.924C33.475,-14.491 38.345,3.321 41.476,7.797C44.309,3.123 48.341,-15.541 48.937,-32.971C57.535,-17.272 69.747,-3.017 74.507,-0.121C75.214,-5.49 73.716,-25.695 67.105,-41.669C80.16,-30.868 96.63,-21.928 101.885,-21C100.613,-26.179 90.656,-43.019 79.344,-55.525C95.658,-51.258 115.046,-48.9 120.227,-50.162C116.699,-54.759 102.024,-66.184 84.325,-72.823C103.203,-73.828 120.705,-80.71 125.452,-84.031C120.891,-86.794 101.471,-90.918 84.629,-91.76C99.183,-100.279 114.467,-112.436 117.239,-116.99C111.494,-117.747 93.06,-117.706 75.846,-109.886C88.488,-123.944 95.38,-138.765 96.389,-144.471C91.21,-143.2 74.441,-133.37 61.933,-122.059C66.2,-138.373 69.005,-158.256 67.744,-163.437C63.147,-159.91 49.442,-146.057 42.802,-128.358C41.798,-147.237 36.769,-163.331 33.448,-168.078C30.485,-163.188 25.964,-145.767 25.896,-127.23C17.284,-143.645 4.885,-157.309 0,-160.281" style="fill:white;"/>
            </g>
        </g>
    </g>
    <g transform="matrix(4.16667,0,0,4.16667,-67.9828,-1261.33)">
        <clipPath id="_clip4">
            <path d="M228.535,453.783C219.923,437.367 207.524,423.704 202.639,420.732C201.932,426.1 203.797,446.589 210.408,462.565C197.353,451.765 180.863,442.833 175.608,441.905C176.962,447.415 185.383,463.387 198.235,476.478C181.219,471.608 162.637,469.764 157.268,471.068C160.516,475.302 176.333,489.011 191.937,495.611C174.714,497.115 156.652,501.905 152.216,505.01C156.776,507.772 176.169,511.452 193.011,512.294C178.457,520.812 162.907,533.485 160.135,538.04C165.878,538.797 184.922,537.633 202.136,529.814C189.494,543.872 182.147,559.657 181.138,565.363C186.649,564.01 202.004,556.623 215.096,543.771C210.224,560.787 208.88,578.529 210.186,583.898C214.567,580.538 228.026,565.533 234.665,549.089C236.113,566.522 240.983,584.333 244.115,588.81C246.948,584.135 250.98,565.472 251.576,548.041C260.174,563.74 272.386,577.995 277.146,580.891C277.853,575.523 276.355,555.318 269.745,539.344C282.799,550.145 299.268,559.084 304.523,560.013C303.252,554.834 293.294,537.994 281.983,525.487C298.296,529.755 317.685,532.112 322.865,530.85C319.338,526.254 304.663,514.829 286.964,508.189C305.842,507.184 323.343,500.302 328.091,496.981C323.53,494.218 304.11,490.095 287.269,489.252C301.822,480.734 317.106,468.577 319.878,464.023C314.133,463.265 295.699,463.306 278.485,471.125C291.127,457.068 298.019,442.247 299.028,436.541C293.849,437.813 277.08,447.642 264.572,458.953C268.839,442.639 271.644,422.757 270.383,417.576C265.786,421.103 252.08,434.955 245.44,452.655C244.437,433.776 239.408,417.681 236.086,412.934C233.124,417.825 228.603,435.245 228.535,453.783Z" clip-rule="nonzero"/>
        </clipPath>
        <g clip-path="url(#_clip4)">
            <g transform="matrix(1,0,0,1,219.333,402.748)">
                <path d="M0,234.715C64.639,234.715 117.357,181.996 117.357,117.357C117.357,52.718 64.639,0 0,0C-64.639,0 -117.358,52.718 -117.358,117.357C-117.358,181.996 -64.639,234.715 0,234.715" style="fill:white;"/>
            </g>
            <g transform="matrix(1,0,0,1,219.333,402.748)">
                <path d="M0,234.715C64.639,234.715 117.357,181.996 117.357,117.357C117.357,52.718 64.639,0 0,0C-64.639,0 -117.358,52.718 -117.358,117.357C-117.358,181.996 -64.639,234.715 0,234.715Z" style="fill:none;fill-rule:nonzero;stroke:rgb(35,31,32);stroke-width:1px;"/>
            </g>
        </g>
    </g>
    <g transform="matrix(4.16667,0,0,4.16667,-67.9828,-1261.33)">
        <g opacity="0.76">
            <g transform="matrix(1,0,0,1,202.639,581.012)">
                <clipPath id="_clip5">
                    <rect x="-51.338" y="-168.993" width="177.705" height="177.706" clip-rule="nonzero"/>
                </clipPath>
                <g clip-path="url(#_clip5)">
                    <path d="M0,-160.281C-0.706,-154.912 1.158,-134.423 7.769,-118.447C-5.286,-129.248 -21.776,-138.179 -27.031,-139.107C-25.677,-133.597 -17.255,-117.625 -4.404,-104.534C-21.42,-109.404 -40.001,-111.249 -45.371,-109.944C-42.122,-105.71 -26.306,-92.001 -10.702,-85.402C-27.925,-83.898 -45.987,-79.107 -50.423,-76.003C-45.863,-73.24 -26.47,-69.56 -9.628,-68.718C-24.182,-60.2 -39.733,-47.528 -42.504,-42.973C-36.762,-42.215 -17.717,-43.379 -0.503,-51.199C-13.144,-37.141 -20.492,-21.355 -21.501,-15.649C-15.991,-17.002 -0.634,-24.389 12.457,-37.241C7.585,-20.225 6.241,-2.484 7.547,2.886C11.928,-0.475 25.387,-15.479 32.026,-31.924C33.475,-14.491 38.345,3.321 41.476,7.797C44.309,3.123 48.341,-15.541 48.937,-32.971C57.535,-17.272 69.747,-3.017 74.507,-0.121C75.214,-5.49 73.716,-25.695 67.105,-41.669C80.16,-30.868 96.63,-21.928 101.885,-21C100.613,-26.179 90.656,-43.019 79.344,-55.525C95.658,-51.258 115.046,-48.9 120.227,-50.162C116.699,-54.759 102.024,-66.184 84.325,-72.823C103.203,-73.828 120.705,-80.71 125.452,-84.031C120.891,-86.794 101.471,-90.918 84.629,-91.76C99.183,-100.279 114.467,-112.436 117.239,-116.99C111.494,-117.747 93.06,-117.706 75.846,-109.886C88.488,-123.944 95.38,-138.765 96.389,-144.471C91.21,-143.2 74.441,-133.37 61.933,-122.059C66.2,-138.373 69.005,-158.256 67.744,-163.437C63.147,-159.91 49.442,-146.057 42.802,-128.358C41.798,-147.237 36.769,-163.331 33.448,-168.078C30.485,-163.188 25.964,-145.767 25.896,-127.23C17.284,-143.645 4.885,-157.309 0,-160.281Z" style="fill:none;fill-rule:nonzero;stroke:rgb(35,31,32);stroke-width:1px;"/>
                </g>
            </g>
        </g>
    </g>
    <g transform="matrix(4.16667,0,0,4.16667,776.346,1159.55)">
        <path d="M0,-160.281C-0.706,-154.912 1.158,-134.423 7.769,-118.447C-5.286,-129.248 -21.776,-138.179 -27.031,-139.107C-25.677,-133.597 -17.255,-117.625 -4.404,-104.534C-21.42,-109.404 -40.001,-111.249 -45.371,-109.944C-42.122,-105.71 -26.306,-92.001 -10.702,-85.402C-27.925,-83.898 -45.987,-79.107 -50.423,-76.003C-45.863,-73.24 -26.47,-69.56 -9.628,-68.718C-24.182,-60.2 -39.733,-47.528 -42.504,-42.973C-36.762,-42.215 -17.717,-43.379 -0.503,-51.199C-13.144,-37.141 -20.492,-21.355 -21.501,-15.649C-15.991,-17.002 -0.634,-24.389 12.457,-37.241C7.585,-20.225 6.241,-2.484 7.547,2.886C11.928,-0.475 25.387,-15.479 32.026,-31.924C33.475,-14.491 38.345,3.321 41.476,7.797C44.309,3.123 48.341,-15.541 48.937,-32.971C57.535,-17.272 69.747,-3.017 74.507,-0.121C75.214,-5.49 73.716,-25.695 67.105,-41.669C80.16,-30.868 96.63,-21.928 101.885,-21C100.613,-26.179 90.656,-43.019 79.344,-55.525C95.658,-51.258 115.046,-48.9 120.227,-50.162C116.699,-54.759 102.024,-66.184 84.325,-72.823C103.203,-73.828 120.705,-80.71 125.452,-84.031C120.891,-86.794 101.471,-90.918 84.629,-91.76C99.183,-100.279 114.467,-112.436 117.239,-116.99C111.494,-117.747 93.06,-117.706 75.846,-109.886C88.488,-123.944 95.38,-138.765 96.389,-144.471C91.21,-143.2 74.441,-133.37 61.933,-122.059C66.2,-138.373 69.005,-158.256 67.744,-163.437C63.147,-159.91 49.442,-146.057 42.802,-128.358C41.798,-147.237 36.769,-163.331 33.448,-168.078C30.485,-163.188 25.964,-145.767 25.896,-127.23C17.284,-143.645 4.885,-157.309 0,-160.281Z" style="fill:white;stroke:rgb(35,31,32);stroke-width:1px;stroke-miterlimit:22.926;"/>
    </g>
    <g transform="matrix(4.16667,0,0,4.16667,830.198,651.346)">
        <path d="M0,83.658C2.334,81.785 8.724,74.965 14.285,65.462C19.846,55.96 23.037,46.469 23.527,43.516C21.193,45.389 14.746,52.697 9.184,62.2C3.624,71.703 0.49,80.705 0,83.658ZM71.705,30.209C69.243,31.911 60.882,36.087 50.187,38.701C39.491,41.316 29.485,41.663 26.515,41.29C28.977,39.587 37.822,35.497 48.517,32.882C59.212,30.267 68.736,29.836 71.705,30.209ZM66.419,66.445C64.547,64.11 57.727,57.721 48.224,52.159C38.721,46.599 29.23,43.407 26.278,42.918C28.151,45.251 35.459,51.698 44.962,57.261C54.464,62.821 63.467,65.955 66.419,66.445ZM49.009,-0.09C48.519,2.863 45.703,11.774 40.142,21.277C34.582,30.78 27.87,38.211 25.536,40.084C26.025,37.132 29.239,27.931 34.8,18.428C40.361,8.925 46.675,1.783 49.009,-0.09ZM-17.328,17.435C-14.376,17.926 -5.464,20.74 4.039,26.303C13.541,31.863 20.972,38.574 22.846,40.909C19.893,40.419 10.692,37.206 1.19,31.646C-8.313,26.084 -15.456,19.77 -17.328,17.435ZM-13.856,71.419C-10.99,70.555 -2.513,66.621 6.199,59.887C14.911,53.155 21.42,45.548 22.979,42.992C20.114,43.855 11.4,48.221 2.689,54.954C-6.023,61.687 -12.297,68.864 -13.856,71.419ZM54.181,80.301C53.317,77.435 49.382,68.958 42.649,60.246C35.917,51.534 28.309,45.025 25.753,43.465C26.617,46.331 30.982,55.044 37.715,63.755C44.448,72.468 51.626,78.742 54.181,80.301ZM62.923,12.083C61.364,14.639 55.419,21.85 46.707,28.582C37.995,35.315 28.991,39.695 26.126,40.56C27.684,38.004 34.106,30.674 42.817,23.942C51.529,17.208 60.057,12.948 62.923,12.083ZM-5.155,3.522C-2.6,5.081 4.611,11.027 11.343,19.738C18.077,28.45 22.457,37.453 23.322,40.32C20.766,38.76 13.436,32.339 6.704,23.628C-0.029,14.914 -4.291,6.388 -5.155,3.522ZM19.102,90.046C20.474,87.387 23.544,78.559 24.767,67.617C25.344,62.454 25.439,57.509 25.301,53.419C25.715,57.406 26.464,62.194 27.686,67.192C30.301,77.888 34.311,86.535 36.013,88.998C36.387,86.028 36.236,76.684 33.621,65.989C31.006,55.293 26.697,46.256 24.995,43.793C24.895,44.589 24.854,45.872 24.897,47.53C24.716,45.862 24.5,44.582 24.3,43.808C22.928,46.468 20.004,55.765 18.781,66.707C17.558,77.649 18.35,87.149 19.102,90.046ZM72.807,47.343C69.911,48.095 60.411,48.886 49.469,47.664C38.527,46.441 29.229,43.517 26.57,42.145C29.468,41.393 39.436,40.455 50.378,41.677C61.321,42.9 70.148,45.97 72.807,47.343ZM-23.626,36.568C-20.73,35.816 -11.442,34.771 -0.5,35.992C10.442,37.216 19.958,40.331 22.618,41.703C22.072,41.845 21.284,41.987 20.292,42.119C21.293,42.122 22.092,42.162 22.652,42.234C20.19,43.935 11.152,48.244 0.455,50.859C-10.239,53.474 -19.584,53.626 -22.552,53.251C-20.091,51.55 -11.443,47.54 -0.749,44.924C3.824,43.806 8.223,43.084 11.99,42.653C8.198,42.708 3.744,42.555 -0.933,42.032C-11.876,40.81 -20.967,37.94 -23.626,36.568ZM12.972,-5.26C12.597,-2.291 13.028,7.232 15.644,17.927C18.258,28.623 22.348,37.468 24.051,39.93C24.15,39.135 24.199,37.836 24.166,36.156C24.335,37.808 24.54,39.079 24.742,39.857C26.114,37.196 29.229,27.681 30.452,16.738C31.675,5.797 30.628,-3.491 29.877,-6.388C28.505,-3.729 25.635,5.363 24.413,16.305C23.841,21.421 23.712,26.266 23.813,30.273C23.426,26.199 22.697,21.306 21.463,16.257C18.848,5.562 14.672,-2.798 12.972,-5.26Z" style="fill:white;stroke:rgb(35,31,32);stroke-width:1px;stroke-miterlimit:22.926;"/>
    </g>
</svg>
