<?xml version="1.0" encoding="UTF-8" standalone="no"?>
<!DOCTYPE svg PUBLIC "-//W3C//DTD SVG 1.1//EN" "http://www.w3.org/Graphics/SVG/1.1/DTD/svg11.dtd">
<svg width="100%" height="100%" viewBox="0 0 1999 415" version="1.1" xmlns="http://www.w3.org/2000/svg" xmlns:xlink="http://www.w3.org/1999/xlink" xml:space="preserve" xmlns:serif="http://www.serif.com/" style="fill-rule:evenodd;clip-rule:evenodd;stroke-linejoin:round;stroke-miterlimit:2;">
    <g transform="matrix(4.16667,0,0,4.16667,358.575,331.237)">
        <path d="M0,-61.69C6.026,-67.159 12.176,-71.292 18.417,-74.057C24.658,-76.854 30.715,-78.251 36.559,-78.251C44.39,-78.251 50.417,-76.033 54.608,-71.566C58.83,-67.129 60.94,-61.082 60.94,-53.423L60.94,7.658L76.176,7.658L76.176,16.561L34.508,16.561L34.508,7.658L50.723,7.658L50.723,-52.178C50.723,-63.392 45.522,-68.983 35.12,-68.983C29.339,-68.983 23.679,-67.585 18.172,-64.759C12.696,-61.962 6.945,-57.678 0.979,-51.996L0.979,7.658L16.397,7.658L16.397,16.561L-25.453,16.561L-25.453,7.658L-9.33,7.658L-9.33,-52.36C-9.33,-63.452 -14.409,-68.983 -24.567,-68.983C-29.95,-68.983 -35.518,-67.493 -41.3,-64.485C-47.052,-61.507 -52.988,-57.344 -59.075,-51.996L-59.075,7.658L-43.656,7.658L-43.656,16.561L-86.058,16.561L-86.058,7.658L-69.568,7.658L-69.568,-68.01L-86.058,-68.01L-86.058,-77.005L-59.075,-77.005L-59.075,-62.571C-47.541,-73.024 -35.855,-78.251 -24.046,-78.251C-11.412,-78.251 -3.427,-72.72 0,-61.69" style="fill:rgb(213,177,76);"/>
    </g>
    <g transform="matrix(4.16667,0,0,4.16667,917.53,38.9958)">
        <path d="M0,80.105C7.099,80.105 13.4,78.343 18.906,74.818C24.413,71.292 28.726,66.491 31.848,60.444C34.998,54.396 36.559,47.589 36.559,40.053C36.559,32.638 34.998,25.892 31.848,19.784C28.726,13.705 24.383,8.874 18.815,5.288C13.277,1.702 6.944,-0.091 -0.183,-0.091C-6.884,-0.091 -13.002,1.702 -18.6,5.288C-24.198,8.874 -28.513,13.705 -31.54,19.784C-34.601,25.892 -36.13,32.638 -36.13,40.053C-36.13,47.467 -34.57,54.244 -31.45,60.353C-28.36,66.46 -24.046,71.292 -18.508,74.818C-12.971,78.343 -6.823,80.105 0,80.105M47.052,40.053C47.052,49.138 45.001,57.435 40.872,64.971C36.742,72.508 31.113,78.494 23.985,82.87C16.826,87.277 8.841,89.464 0,89.464C-8.903,89.464 -16.917,87.338 -24.016,83.053C-31.144,78.768 -36.712,72.873 -40.749,65.336C-44.757,57.8 -46.777,49.351 -46.777,40.053C-46.777,30.906 -44.726,22.549 -40.658,14.951C-36.559,7.354 -30.93,1.398 -23.74,-2.917C-16.581,-7.201 -8.658,-9.359 0,-9.359C8.841,-9.359 16.826,-7.141 23.985,-2.735C31.113,1.702 36.742,7.689 40.872,15.286C45.001,22.883 47.052,31.149 47.052,40.053" style="fill:rgb(213,177,76);"/>
    </g>
    <g transform="matrix(4.16667,0,0,4.16667,1357.95,38.9958)">
        <path d="M0,80.105C7.099,80.105 13.401,78.343 18.906,74.818C24.414,71.292 28.727,66.491 31.848,60.444C34.998,54.396 36.559,47.589 36.559,40.053C36.559,32.638 34.998,25.892 31.848,19.784C28.727,13.705 24.383,8.874 18.815,5.288C13.278,1.702 6.944,-0.091 -0.183,-0.091C-6.883,-0.091 -13.002,1.702 -18.6,5.288C-24.198,8.874 -28.512,13.705 -31.54,19.784C-34.6,25.892 -36.13,32.638 -36.13,40.053C-36.13,47.467 -34.57,54.244 -31.449,60.353C-28.36,66.46 -24.046,71.292 -18.508,74.818C-12.97,78.343 -6.823,80.105 0,80.105M47.052,40.053C47.052,49.138 45.002,57.435 40.872,64.971C36.742,72.508 31.114,78.494 23.986,82.87C16.826,87.277 8.841,89.464 0,89.464C-8.902,89.464 -16.917,87.338 -24.015,83.053C-31.143,78.768 -36.711,72.873 -40.749,65.336C-44.757,57.8 -46.776,49.351 -46.776,40.053C-46.776,30.906 -44.726,22.549 -40.658,14.951C-36.559,7.354 -30.929,1.398 -23.74,-2.917C-16.581,-7.201 -8.657,-9.359 0,-9.359C8.841,-9.359 16.826,-7.141 23.986,-2.735C31.114,1.702 36.742,7.689 40.872,15.286C45.002,22.883 47.052,31.149 47.052,40.053" style="fill:rgb(213,177,76);"/>
    </g>
    <g transform="matrix(4.16667,0,0,4.16667,1653.16,376.857)">
        <path d="M0,-78.959L29.806,-3.291L60.246,-78.959L44.787,-78.959L44.787,-87.954L82.775,-87.954L82.775,-78.959L69.157,-78.959L31.74,8.995L27.904,8.995L-9.908,-78.959L-24.65,-78.959L-24.65,-87.954L15.023,-87.954L15.023,-78.959L0,-78.959Z" style="fill:rgb(213,177,76);"/>
    </g>
</svg>
