<?xml version="1.0" encoding="UTF-8"?>
<svg width="200" height="200" viewBox="0 0 200 200" xmlns="http://www.w3.org/2000/svg">
  <circle cx="100" cy="100" r="100" fill="#7EB2DD"/>
  <path d="M100 110c-22.1 0-40-17.9-40-40s17.9-40 40-40 40 17.9 40 40-17.9 40-40 40zm0-70c-16.5 0-30 13.5-30 30s13.5 30 30 30 30-13.5 30-30-13.5-30-30-30z" fill="#FCECC9"/>
  <path d="M100 120c-33.1 0-60 26.9-60 60v20h120v-20c0-33.1-26.9-60-60-60zm0 10c27.6 0 50 22.4 50 50v10H50v-10c0-27.6 22.4-50 50-50z" fill="#FCECC9"/>
</svg> 