<?xml version="1.0" encoding="UTF-8" standalone="no"?>
<!DOCTYPE svg PUBLIC "-//W3C//DTD SVG 1.1//EN" "http://www.w3.org/Graphics/SVG/1.1/DTD/svg11.dtd">
<svg width="100%" height="100%" viewBox="0 0 1350 1350" version="1.1" xmlns="http://www.w3.org/2000/svg" xmlns:xlink="http://www.w3.org/1999/xlink" xml:space="preserve" xmlns:serif="http://www.serif.com/" style="fill-rule:evenodd;clip-rule:evenodd;stroke-miterlimit:22.926;">
    <g transform="matrix(4.16667,0,0,4.16667,-323.286,-1408.56)">
        <g transform="matrix(242.019,-238.167,-96.2433,-97.7999,121.209,642.631)">
            <path d="M0.728,0.902C0.724,1.031 0.709,1.138 0.694,1.192C0.669,1.173 0.63,1.111 0.594,1.015C0.571,1.132 0.539,1.218 0.517,1.254C0.497,1.213 0.472,1.122 0.454,1.003C0.415,1.086 0.374,1.134 0.348,1.147C0.336,1.089 0.326,0.978 0.328,0.848C0.278,0.889 0.232,0.895 0.206,0.882C0.203,0.818 0.211,0.709 0.233,0.594C0.181,0.584 0.138,0.547 0.117,0.511C0.124,0.449 0.149,0.354 0.187,0.267C0.14,0.208 0.105,0.132 0.091,0.078C0.107,0.029 0.144,-0.035 0.192,-0.079C0.158,-0.175 0.138,-0.275 0.133,-0.338C0.157,-0.369 0.202,-0.395 0.255,-0.389C0.238,-0.515 0.235,-0.632 0.241,-0.696C0.267,-0.703 0.311,-0.683 0.358,-0.63C0.361,-0.757 0.375,-0.862 0.39,-0.916C0.415,-0.897 0.455,-0.836 0.491,-0.741C0.514,-0.858 0.544,-0.945 0.566,-0.981C0.586,-0.94 0.613,-0.849 0.631,-0.73C0.67,-0.814 0.71,-0.864 0.735,-0.876C0.748,-0.819 0.759,-0.707 0.757,-0.576C0.807,-0.619 0.853,-0.627 0.879,-0.614C0.881,-0.55 0.874,-0.438 0.853,-0.321C0.904,-0.313 0.947,-0.278 0.968,-0.242C0.961,-0.18 0.937,-0.082 0.898,0.007C0.945,0.063 0.98,0.137 0.994,0.191C0.978,0.24 0.942,0.306 0.894,0.352C0.928,0.446 0.948,0.544 0.953,0.607C0.93,0.638 0.884,0.666 0.83,0.662C0.848,0.787 0.851,0.902 0.846,0.966C0.82,0.973 0.775,0.955 0.728,0.902Z" style="fill:url(#_Radial1);fill-rule:nonzero;"/>
        </g>
        <g transform="matrix(179.708,-137.633,-78.7262,-102.793,74.1647,607.577)">
            <path d="M0.682,0.834C0.678,0.812 0.675,0.789 0.672,0.766C0.607,0.84 0.542,0.878 0.504,0.883C0.489,0.819 0.483,0.698 0.496,0.562C0.418,0.589 0.349,0.581 0.311,0.558C0.312,0.491 0.332,0.378 0.373,0.264C0.297,0.237 0.235,0.184 0.206,0.139C0.222,0.077 0.265,-0.016 0.329,-0.095C0.264,-0.171 0.218,-0.262 0.2,-0.324C0.228,-0.37 0.288,-0.426 0.362,-0.457C0.319,-0.569 0.297,-0.681 0.294,-0.748C0.332,-0.773 0.401,-0.786 0.48,-0.763C0.476,-0.801 0.473,-0.839 0.471,-0.875C0.631,-0.886 0.791,-0.766 0.895,-0.528C1.065,-0.14 1.023,0.419 0.801,0.716C0.764,0.766 0.724,0.805 0.682,0.834Z" style="fill:url(#_Radial2);fill-rule:nonzero;"/>
        </g>
        <g transform="matrix(1,0,0,1,174.504,639.232)">
            <path d="M0,-278.463C-4.299,-270.601 -7.828,-255.309 -7.173,-237.436C-24.172,-243.211 -39.994,-244.202 -48.771,-242.469C-49.675,-233.723 -47.13,-218.665 -39.927,-202.772C-57.402,-201.56 -72.001,-196.588 -79.329,-191.757C-76.813,-183.165 -68.509,-169.872 -55.427,-157.706C-71.51,-149.778 -83.388,-139.309 -88.367,-131.887C-82.834,-125.071 -70.422,-116.233 -54.128,-110.083C-65.674,-96.836 -72.502,-82.947 -74.269,-74.328C-66.482,-70.073 -51.41,-66.575 -33.763,-67.149C-39.487,-50.316 -40.509,-34.669 -38.824,-25.953C-30.119,-25.017 -15.148,-27.481 0.693,-34.549C1.825,-17.164 6.684,-2.625 11.45,4.701C20.133,2.217 33.637,-6.126 45.972,-19.33C53.906,-2.969 64.506,9.123 72.001,14.167C78.848,8.625 87.737,-3.838 93.914,-20.201C106.904,-8.552 120.497,-1.595 129.109,0.172C133.402,-7.675 137.216,-23.063 136.824,-41.011C153.672,-35.008 169.318,-33.775 178.11,-35.509C179.012,-44.24 176.686,-59.487 169.696,-75.548C187.118,-76.494 201.648,-81.186 208.99,-86.025C206.478,-94.603 198.309,-108.164 185.361,-120.569C201.498,-128.228 213.422,-138.402 218.409,-145.836C212.852,-152.683 200.338,-161.879 183.926,-168.304C195.589,-181.308 202.553,-194.92 204.318,-203.542C196.523,-207.801 181.296,-211.588 163.509,-211.251C169.431,-227.897 170.684,-243.328 168.998,-252.043C160.319,-252.974 145.184,-250.733 129.192,-243.892C128.315,-261.188 123.74,-275.626 118.973,-282.954C110.292,-280.47 96.487,-272.241 83.896,-259.137C76.24,-275.494 65.973,-287.59 58.483,-292.63C51.622,-287.077 42.399,-274.557 35.948,-258.13C22.645,-269.788 8.663,-276.684 0,-278.463Z" style="fill:none;fill-rule:nonzero;stroke:rgb(205,140,93);stroke-width:0.75px;"/>
        </g>
        <g transform="matrix(283.343,-140.137,-120.461,-243.562,59.104,560.682)">
            <path d="M0.708,0.199C0.706,0.265 0.69,0.319 0.678,0.341C0.659,0.327 0.627,0.285 0.603,0.226C0.58,0.287 0.547,0.331 0.529,0.347C0.516,0.325 0.499,0.27 0.496,0.202C0.454,0.25 0.41,0.277 0.387,0.283C0.383,0.257 0.384,0.199 0.403,0.136C0.35,0.161 0.301,0.166 0.278,0.162C0.283,0.136 0.303,0.082 0.341,0.032C0.285,0.032 0.237,0.018 0.218,0.004C0.23,-0.018 0.267,-0.06 0.317,-0.09C0.265,-0.116 0.229,-0.15 0.216,-0.171C0.234,-0.186 0.28,-0.21 0.338,-0.214C0.298,-0.263 0.273,-0.308 0.267,-0.335C0.29,-0.34 0.341,-0.345 0.395,-0.322C0.374,-0.384 0.371,-0.434 0.375,-0.46C0.397,-0.455 0.441,-0.438 0.484,-0.394C0.485,-0.459 0.498,-0.513 0.51,-0.535C0.529,-0.521 0.563,-0.48 0.589,-0.422C0.611,-0.483 0.644,-0.527 0.663,-0.542C0.676,-0.52 0.693,-0.465 0.696,-0.398C0.737,-0.445 0.782,-0.469 0.804,-0.475C0.809,-0.449 0.807,-0.394 0.789,-0.331C0.842,-0.356 0.889,-0.357 0.912,-0.352C0.907,-0.326 0.889,-0.278 0.851,-0.228C0.907,-0.226 0.956,-0.206 0.975,-0.192C0.962,-0.171 0.925,-0.134 0.874,-0.106C0.927,-0.08 0.963,-0.039 0.977,-0.017C0.958,-0.002 0.912,0.015 0.853,0.019C0.894,0.067 0.92,0.121 0.926,0.147C0.903,0.152 0.851,0.149 0.797,0.127C0.818,0.189 0.823,0.246 0.819,0.272C0.796,0.267 0.751,0.243 0.708,0.199Z" style="fill:url(#_Radial3);fill-rule:nonzero;"/>
        </g>
        <g transform="matrix(317.147,-242.894,-138.935,-181.408,68.1196,630.834)">
            <path d="M0.665,0.311C0.672,0.388 0.666,0.455 0.66,0.485C0.644,0.473 0.613,0.433 0.587,0.37C0.577,0.448 0.557,0.508 0.545,0.531C0.532,0.509 0.512,0.45 0.5,0.371C0.474,0.438 0.444,0.482 0.427,0.495C0.42,0.466 0.413,0.397 0.42,0.319C0.382,0.362 0.344,0.381 0.326,0.382C0.326,0.351 0.335,0.283 0.358,0.214C0.314,0.229 0.275,0.225 0.259,0.214C0.265,0.185 0.288,0.127 0.323,0.079C0.279,0.062 0.247,0.032 0.234,0.011C0.246,-0.012 0.279,-0.052 0.323,-0.072C0.285,-0.118 0.26,-0.165 0.253,-0.194C0.269,-0.206 0.308,-0.225 0.353,-0.214C0.329,-0.28 0.32,-0.338 0.319,-0.369C0.337,-0.369 0.374,-0.362 0.413,-0.321C0.405,-0.398 0.408,-0.464 0.415,-0.493C0.431,-0.481 0.463,-0.443 0.491,-0.382C0.5,-0.459 0.52,-0.519 0.532,-0.542C0.545,-0.52 0.566,-0.46 0.577,-0.382C0.603,-0.449 0.634,-0.489 0.651,-0.501C0.658,-0.472 0.664,-0.408 0.658,-0.329C0.696,-0.372 0.733,-0.386 0.751,-0.387C0.75,-0.355 0.743,-0.294 0.72,-0.226C0.764,-0.238 0.804,-0.228 0.82,-0.217C0.814,-0.188 0.789,-0.136 0.753,-0.089C0.798,-0.073 0.832,-0.035 0.845,-0.013C0.833,0.01 0.799,0.042 0.754,0.062C0.792,0.108 0.819,0.163 0.827,0.192C0.81,0.204 0.769,0.215 0.724,0.203C0.749,0.27 0.76,0.335 0.76,0.366C0.742,0.366 0.704,0.351 0.665,0.311Z" style="fill:url(#_Radial4);fill-rule:nonzero;"/>
        </g>
        <g transform="matrix(1,0,0,1,210.146,617.365)">
            <path d="M0,-234.763C-3.584,-228.688 -7.622,-213.967 -7.407,-196.218C-21.214,-207.998 -35.856,-214.075 -42.935,-215.346C-44.036,-208.185 -42.193,-192.372 -34.928,-175.46C-52.41,-181.219 -68.322,-181.674 -75.36,-179.952C-73.479,-173.021 -66.168,-159.003 -53.268,-146.296C-71.317,-144.852 -85.907,-139.279 -91.682,-135.051C-87.289,-129.357 -75.141,-119.169 -58.32,-112.356C-74.167,-104.357 -86.034,-94.198 -89.77,-88.216C-83.656,-84.608 -68.234,-79.526 -50.401,-79.325C-62.104,-65.561 -68.14,-52.336 -69.405,-45.283C-62.226,-44.179 -46.357,-44.692 -29.398,-52.002C-35.099,-34.436 -36.554,-19.789 -34.949,-12.682C-28.028,-14.428 -12.945,-20.547 -0.35,-33.466C1.111,-15.482 6.268,-2.904 10.485,2.856C16.179,-1.538 26.766,-11.734 33.579,-28.555C41.578,-12.709 51.952,-1.512 57.935,2.225C61.542,-3.889 66.409,-18.641 66.61,-36.474C80.374,-24.773 94.94,-18.733 101.994,-17.466C103.095,-24.627 101.251,-40.439 93.988,-57.352C111.472,-51.592 127.017,-51.96 134.053,-53.681C132.173,-60.61 125.23,-73.808 112.33,-86.514C130.379,-87.959 143.943,-94.474 149.719,-98.702C145.341,-104.376 134.286,-113.571 117.555,-120.384C133.283,-128.79 144.523,-140.416 148.284,-146.437C142.208,-150.021 127.092,-153.556 109.342,-153.342C121.122,-167.148 126.596,-182.305 127.867,-189.384C120.688,-190.488 105.419,-188.119 88.459,-180.809C94.159,-198.376 95.151,-214.977 93.546,-222.085C86.624,-220.339 72.005,-212.265 59.41,-199.343C57.949,-217.328 52.392,-231.859 48.175,-237.619C42.501,-233.242 32.364,-221.162 25.551,-204.431C17.145,-220.159 6.021,-231.003 0,-234.763Z" style="fill:none;fill-rule:nonzero;stroke:rgb(205,140,93);stroke-width:0.75px;"/>
        </g>
        <g>
            <clipPath id="_clip5">
                <path d="M228.145,453.783C219.533,437.367 207.134,423.704 202.249,420.731C201.543,426.1 203.408,446.589 210.018,462.565C196.964,451.765 180.474,442.833 175.219,441.905C176.572,447.415 184.993,463.387 197.846,476.478C180.829,471.608 162.248,469.764 156.878,471.068C160.126,475.302 175.943,489.011 191.547,495.611C174.324,497.115 156.262,501.905 151.826,505.009C156.386,507.772 175.779,511.452 192.621,512.294C178.067,520.812 162.517,533.485 159.745,538.04C165.488,538.797 184.533,537.633 201.746,529.814C189.105,543.872 181.757,559.657 180.748,565.363C186.258,564.01 201.615,556.623 214.705,543.771C209.834,560.787 208.491,578.529 209.797,583.898C214.177,580.538 227.635,565.533 234.275,549.089C235.724,566.522 240.594,584.333 243.725,588.81C246.558,584.135 250.59,565.472 251.187,548.041C259.784,563.74 271.996,577.995 276.757,580.891C277.462,575.523 275.965,555.318 269.354,539.344C282.409,550.145 298.879,559.084 304.134,560.013C302.862,554.834 292.904,537.994 281.593,525.487C297.907,529.755 317.295,532.112 322.476,530.85C318.949,526.254 304.273,514.829 286.574,508.189C305.452,507.184 322.954,500.302 327.7,496.981C323.141,494.218 303.721,490.095 286.879,489.252C301.433,480.734 316.717,468.577 319.488,464.023C313.743,463.265 295.309,463.306 278.095,471.125C290.737,457.068 297.629,442.247 298.638,436.541C293.459,437.813 276.69,447.642 264.183,458.953C268.45,442.639 271.254,422.756 269.993,417.576C265.396,421.103 251.691,434.955 245.051,452.655C244.047,433.776 239.018,417.681 235.697,412.934C232.734,417.825 228.213,435.245 228.145,453.783Z" clip-rule="nonzero"/>
            </clipPath>
            <g clip-path="url(#_clip5)">
                <g opacity="0.76">
                    <g transform="matrix(105.946,-7.10543e-15,70.1912,-155.886,234.865,512.622)">
                        <path d="M-1.207,0.639L0.453,0.639L1.2,-0.489L-0.46,-0.489L-1.207,0.639Z" style="fill:url(#_Radial6);"/>
                    </g>
                </g>
            </g>
        </g>
        <g transform="matrix(183.534,-140.564,-80.4024,-104.981,124.035,583.393)">
            <path d="M0.698,0.299C0.712,0.438 0.705,0.577 0.696,0.617C0.68,0.588 0.632,0.456 0.613,0.33C0.597,0.455 0.564,0.584 0.548,0.614C0.538,0.575 0.525,0.44 0.535,0.303C0.489,0.41 0.43,0.507 0.408,0.523C0.408,0.483 0.427,0.328 0.463,0.217C0.4,0.287 0.325,0.341 0.302,0.343C0.31,0.305 0.367,0.194 0.423,0.112C0.35,0.127 0.263,0.123 0.242,0.108C0.26,0.077 0.328,-0.003 0.408,-0.036C0.327,-0.062 0.261,-0.123 0.242,-0.153C0.265,-0.17 0.337,-0.196 0.416,-0.179C0.354,-0.259 0.303,-0.359 0.293,-0.397C0.317,-0.397 0.403,-0.369 0.469,-0.301C0.428,-0.412 0.398,-0.542 0.397,-0.583C0.419,-0.568 0.482,-0.474 0.53,-0.372C0.518,-0.506 0.522,-0.648 0.531,-0.687C0.548,-0.658 0.596,-0.53 0.615,-0.404C0.631,-0.529 0.664,-0.658 0.68,-0.688C0.689,-0.651 0.699,-0.504 0.693,-0.377C0.738,-0.477 0.799,-0.581 0.82,-0.597C0.82,-0.553 0.799,-0.417 0.756,-0.296C0.823,-0.377 0.902,-0.416 0.927,-0.418C0.918,-0.38 0.862,-0.266 0.807,-0.184C0.879,-0.199 0.964,-0.197 0.985,-0.182C0.967,-0.151 0.904,-0.067 0.824,-0.034C0.905,-0.008 0.967,0.049 0.986,0.079C0.965,0.095 0.881,0.113 0.809,0.103C0.866,0.181 0.928,0.288 0.937,0.324C0.912,0.324 0.829,0.304 0.759,0.228C0.806,0.346 0.831,0.466 0.832,0.51C0.809,0.494 0.747,0.41 0.698,0.299Z" style="fill:url(#_Radial7);fill-rule:nonzero;"/>
        </g>
        <g transform="matrix(1,0,0,1,202.249,581.012)">
            <path d="M0,-160.281C-0.706,-154.912 1.158,-134.423 7.769,-118.447C-5.286,-129.248 -21.776,-138.179 -27.031,-139.107C-25.677,-133.597 -17.255,-117.625 -4.404,-104.534C-21.42,-109.404 -40.001,-111.249 -45.371,-109.944C-42.122,-105.71 -26.306,-92.001 -10.702,-85.401C-27.925,-83.898 -45.987,-79.107 -50.423,-76.003C-45.863,-73.24 -26.47,-69.56 -9.628,-68.718C-24.182,-60.2 -39.733,-47.528 -42.504,-42.973C-36.762,-42.215 -17.717,-43.379 -0.503,-51.199C-13.144,-37.141 -20.492,-21.355 -21.501,-15.649C-15.991,-17.002 -0.634,-24.389 12.457,-37.241C7.585,-20.225 6.241,-2.484 7.547,2.886C11.928,-0.475 25.387,-15.479 32.026,-31.923C33.475,-14.491 38.345,3.321 41.476,7.797C44.309,3.123 48.341,-15.541 48.937,-32.971C57.535,-17.272 69.747,-3.017 74.507,-0.121C75.214,-5.49 73.716,-25.695 67.105,-41.669C80.16,-30.868 96.63,-21.928 101.885,-21C100.613,-26.179 90.656,-43.018 79.344,-55.525C95.658,-51.258 115.046,-48.9 120.227,-50.162C116.699,-54.759 102.024,-66.184 84.325,-72.823C103.203,-73.828 120.705,-80.71 125.452,-84.031C120.891,-86.794 101.471,-90.918 84.629,-91.76C99.183,-100.279 114.467,-112.435 117.239,-116.99C111.494,-117.747 93.06,-117.706 75.846,-109.886C88.488,-123.944 95.38,-138.765 96.389,-144.471C91.21,-143.2 74.441,-133.37 61.933,-122.059C66.2,-138.373 69.005,-158.256 67.744,-163.437C63.147,-159.91 49.442,-146.057 42.802,-128.358C41.798,-147.237 36.769,-163.331 33.448,-168.078C30.485,-163.188 25.964,-145.767 25.896,-127.23C17.284,-143.645 4.885,-157.309 0,-160.281Z" style="fill:none;fill-rule:nonzero;stroke:rgb(205,140,93);stroke-width:0.75px;"/>
        </g>
        <g transform="matrix(1,0,0,1,215.173,459.043)">
            <path d="M0,83.658C2.334,81.785 8.724,74.965 14.285,65.462C19.846,55.96 23.038,46.469 23.527,43.516C21.193,45.389 14.746,52.697 9.184,62.2C3.624,71.703 0.49,80.705 0,83.658ZM71.705,30.209C69.243,31.911 60.882,36.087 50.187,38.701C39.491,41.316 29.485,41.663 26.515,41.29C28.977,39.587 37.822,35.497 48.517,32.882C59.212,30.267 68.736,29.836 71.705,30.209ZM66.419,66.445C64.547,64.11 57.727,57.721 48.224,52.159C38.721,46.599 29.23,43.407 26.277,42.918C28.151,45.251 35.459,51.698 44.962,57.261C54.464,62.821 63.467,65.955 66.419,66.445ZM49.009,-0.09C48.519,2.863 45.703,11.774 40.142,21.277C34.582,30.78 27.87,38.211 25.536,40.084C26.025,37.132 29.239,27.931 34.8,18.428C40.361,8.925 46.675,1.783 49.009,-0.09ZM-17.328,17.435C-14.376,17.926 -5.464,20.74 4.039,26.303C13.541,31.863 20.972,38.574 22.846,40.909C19.893,40.419 10.692,37.206 1.19,31.646C-8.313,26.084 -15.456,19.77 -17.328,17.435ZM-13.856,71.419C-10.99,70.555 -2.513,66.621 6.199,59.887C14.911,53.155 21.42,45.548 22.979,42.992C20.114,43.855 11.4,48.221 2.689,54.954C-6.023,61.687 -12.297,68.864 -13.856,71.419ZM54.181,80.301C53.317,77.435 49.382,68.958 42.649,60.246C35.917,51.534 28.309,45.025 25.753,43.465C26.617,46.331 30.983,55.044 37.715,63.755C44.448,72.468 51.626,78.742 54.181,80.301ZM62.922,12.083C61.364,14.639 55.419,21.85 46.707,28.582C37.995,35.315 28.991,39.695 26.126,40.56C27.684,38.004 34.106,30.674 42.817,23.942C51.529,17.208 60.057,12.948 62.922,12.083ZM-5.155,3.522C-2.6,5.081 4.611,11.027 11.343,19.738C18.077,28.45 22.457,37.453 23.322,40.32C20.766,38.76 13.436,32.339 6.704,23.628C-0.029,14.914 -4.291,6.388 -5.155,3.522ZM19.102,90.046C20.474,87.387 23.544,78.559 24.767,67.617C25.344,62.454 25.439,57.509 25.301,53.419C25.715,57.406 26.464,62.194 27.686,67.192C30.301,77.888 34.311,86.535 36.013,88.998C36.387,86.028 36.236,76.684 33.621,65.989C31.006,55.293 26.697,46.256 24.995,43.793C24.895,44.589 24.854,45.872 24.897,47.53C24.716,45.862 24.5,44.582 24.3,43.808C22.928,46.468 20.004,55.765 18.781,66.707C17.558,77.649 18.35,87.149 19.102,90.046ZM72.807,47.343C69.911,48.095 60.411,48.886 49.469,47.664C38.527,46.441 29.229,43.517 26.57,42.145C29.467,41.393 39.436,40.455 50.378,41.677C61.321,42.9 70.148,45.97 72.807,47.343ZM-23.626,36.568C-20.73,35.816 -11.442,34.771 -0.5,35.992C10.442,37.216 19.958,40.331 22.618,41.703C22.072,41.845 21.284,41.987 20.292,42.119C21.293,42.122 22.092,42.162 22.652,42.234C20.19,43.935 11.152,48.244 0.455,50.859C-10.239,53.474 -19.584,53.626 -22.552,53.251C-20.091,51.55 -11.443,47.54 -0.749,44.924C3.824,43.806 8.223,43.084 11.99,42.653C8.198,42.708 3.744,42.555 -0.933,42.032C-11.876,40.81 -20.967,37.94 -23.626,36.568ZM12.972,-5.26C12.597,-2.291 13.028,7.232 15.644,17.927C18.258,28.623 22.348,37.468 24.051,39.93C24.15,39.135 24.199,37.836 24.166,36.156C24.335,37.808 24.54,39.079 24.742,39.857C26.114,37.196 29.229,27.681 30.452,16.738C31.674,5.797 30.628,-3.491 29.877,-6.388C28.505,-3.729 25.635,5.363 24.413,16.305C23.841,21.421 23.712,26.266 23.813,30.273C23.426,26.199 22.697,21.306 21.463,16.257C18.848,5.562 14.672,-2.798 12.972,-5.26Z" style="fill:rgb(195,124,120);stroke:rgb(205,140,93);stroke-width:0.75px;"/>
        </g>
    </g>
    <defs>
        <radialGradient id="_Radial1" cx="0" cy="0" r="1" gradientUnits="userSpaceOnUse" gradientTransform="matrix(1,0,0,-1,0,0.273248)"><stop offset="0" style="stop-color:rgb(199,123,103);stop-opacity:1"/><stop offset="0.16" style="stop-color:rgb(212,151,136);stop-opacity:1"/><stop offset="0.49" style="stop-color:rgb(203,136,123);stop-opacity:1"/><stop offset="0.66" style="stop-color:rgb(229,191,138);stop-opacity:1"/><stop offset="1" style="stop-color:rgb(237,207,144);stop-opacity:1"/></radialGradient>
        <radialGradient id="_Radial2" cx="0" cy="0" r="1" gradientUnits="userSpaceOnUse" gradientTransform="matrix(1,0,5.55112e-17,-1,0,-0.00307495)"><stop offset="0" style="stop-color:rgb(199,123,103);stop-opacity:1"/><stop offset="0.33" style="stop-color:rgb(197,117,105);stop-opacity:1"/><stop offset="1" style="stop-color:rgb(237,207,144);stop-opacity:1"/></radialGradient>
        <radialGradient id="_Radial3" cx="0" cy="0" r="1" gradientUnits="userSpaceOnUse" gradientTransform="matrix(1,0,0,-1,0,-0.195183)"><stop offset="0" style="stop-color:rgb(199,123,103);stop-opacity:1"/><stop offset="0.16" style="stop-color:rgb(212,151,136);stop-opacity:1"/><stop offset="0.23" style="stop-color:rgb(203,136,123);stop-opacity:1"/><stop offset="0.66" style="stop-color:rgb(229,191,138);stop-opacity:1"/><stop offset="1" style="stop-color:rgb(237,207,144);stop-opacity:1"/></radialGradient>
        <radialGradient id="_Radial4" cx="0" cy="0" r="1" gradientUnits="userSpaceOnUse" gradientTransform="matrix(1,-1.11022e-16,0,-1,0,-0.010519)"><stop offset="0" style="stop-color:rgb(199,123,103);stop-opacity:1"/><stop offset="0.33" style="stop-color:rgb(197,117,105);stop-opacity:1"/><stop offset="1" style="stop-color:rgb(237,207,144);stop-opacity:1"/></radialGradient>
        <radialGradient id="_Radial6" cx="0" cy="0" r="1" gradientUnits="userSpaceOnUse" gradientTransform="matrix(0.338426,0.940993,0.940993,-0.338426,-0.0733786,0.10437)"><stop offset="0" style="stop-color:rgb(199,123,103);stop-opacity:1"/><stop offset="0.17" style="stop-color:rgb(214,152,136);stop-opacity:1"/><stop offset="0.81" style="stop-color:rgb(242,219,150);stop-opacity:1"/><stop offset="1" style="stop-color:rgb(234,206,144);stop-opacity:1"/></radialGradient>
        <radialGradient id="_Radial7" cx="0" cy="0" r="1" gradientUnits="userSpaceOnUse" gradientTransform="matrix(1,1.11022e-16,0,-1,0,-0.0707954)"><stop offset="0" style="stop-color:rgb(199,123,103);stop-opacity:1"/><stop offset="0.33" style="stop-color:rgb(197,117,105);stop-opacity:1"/><stop offset="1" style="stop-color:rgb(237,207,144);stop-opacity:1"/></radialGradient>
    </defs>
</svg>
